<svg xmlns="http://www.w3.org/2000/svg" version="1.1" xmlns:xlink="http://www.w3.org/1999/xlink" xmlns:svgjs="http://svgjs.dev/svgjs" width="1500" height="1500" viewBox="0 0 1500 1500"><rect width="1500" height="1500" fill="#000000"></rect><g transform="matrix(0.6666666666666666,0,0,0.6666666666666666,249.39393939393938,638.7584483981369)"><svg viewBox="0 0 396 88" data-background-color="#ffffff" preserveAspectRatio="xMidYMid meet" height="333" width="1500" xmlns="http://www.w3.org/2000/svg" xmlns:xlink="http://www.w3.org/1999/xlink"><g id="tight-bounds" transform="matrix(1,0,0,1,0.2400000000000091,0.0957501845223021)"><svg viewBox="0 0 395.52 87.80846666410999" height="87.80846666410999" width="395.52"><g><svg viewBox="0 0 538.6478971715165 119.58395510335268" height="87.80846666410999" width="395.52"><g transform="matrix(1,0,0,1,143.12789717151665,21.627100025500546)"><svg viewBox="0 0 395.5199999999999 76.32975505235159" height="76.32975505235159" width="395.5199999999999"><g id="textblocktransform"><svg viewBox="0 0 395.5199999999999 76.32975505235159" height="76.32975505235159" width="395.5199999999999" id="textblock"><g><rect width="106.79039999999998" height="4.49689293501932" y="66.73500403500411" fill="#ffffff" data-fill-palette-color="tertiary"></rect><rect width="106.79039999999998" height="4.49689293501932" y="66.73500403500411" x="288.72959999999995" fill="#ffffff" data-fill-palette-color="tertiary"></rect></g><g><svg viewBox="0 0 395.5199999999999 49.865174918593965" height="49.865174918593965" width="395.5199999999999"><g transform="matrix(1,0,0,1,0,0)"><svg width="395.5199999999999" viewBox="3.15 -36.23 292.38 36.86" height="49.865174918593965" data-palette-color="#3d9970"><path d="M26.83 0L22.88 0 22.88-21.19Q22.88-24.49 22.95-26.1L22.95-26.1 23.02-28.54Q21.46-23.51 20.7-21.44L20.7-21.44 16.7-10.74 13.35-10.74 9.3-21.44Q8.86-22.56 6.96-28.54L6.96-28.54 7.06-21.19 7.06 0 3.15 0 3.15-32.93 8.94-32.93 13.45-21Q13.96-19.7 15.11-15.36L15.11-15.36 15.75-17.55 16.82-20.97 21.34-32.93 26.83-32.93 26.83 0ZM56.78-13.23L56.78-13.23Q56.78-6.57 53.72-3.04 50.66 0.49 44.87 0.49L44.87 0.49Q39.21 0.49 36.19-3.08 33.18-6.64 33.18-13.23L33.18-13.23Q33.18-20.04 36.26-23.47 39.35-26.9 45.02-26.9L45.02-26.9Q50.97-26.9 53.88-23.51 56.78-20.12 56.78-13.23ZM52.17-13.23L52.17-13.23Q52.17-18.48 50.5-21.07 48.83-23.66 45.09-23.66L45.09-23.66Q41.31-23.66 39.55-21.02 37.79-18.38 37.79-13.23L37.79-13.23Q37.79-8.11 39.55-5.43 41.31-2.76 44.82-2.76L44.82-2.76Q48.7-2.76 50.44-5.37 52.17-7.98 52.17-13.23ZM85.62 0L81.2 0 81.2-16.97Q81.2-20.29 79.91-21.9 78.63-23.51 75.83-23.51L75.83-23.51Q72.8-23.51 70.86-21.3 68.92-19.09 68.92-15.31L68.92-15.31 68.92 0 64.52 0 64.52-20.78Q64.52-25.39 64.37-26.42L64.37-26.42 68.53-26.42Q68.55-26.29 68.57-25.76 68.6-25.22 68.64-24.52 68.67-23.83 68.72-21.9L68.72-21.9 68.79-21.9Q71.36-26.9 77.24-26.9L77.24-26.9Q81.46-26.9 83.54-24.62 85.62-22.34 85.62-17.6L85.62-17.6 85.62 0ZM116.89-2.71L116.89-2.71Q117.52-2.71 118.33-2.88L118.33-2.88 118.33-0.15Q116.67 0.24 114.93 0.24L114.93 0.24Q112.49 0.24 111.38-1.04 110.27-2.32 110.12-5.05L110.12-5.05 109.98-5.05Q108.39-2.1 106.23-0.81 104.07 0.49 100.9 0.49L100.9 0.49Q97.04 0.49 95.09-1.61 93.13-3.71 93.13-7.37L93.13-7.37Q93.13-15.89 104.22-16.02L104.22-16.02 109.98-16.11 109.98-17.55Q109.98-20.75 108.68-22.16 107.39-23.56 104.56-23.56L104.56-23.56Q101.68-23.56 100.41-22.53 99.14-21.51 98.89-19.36L98.89-19.36 94.3-19.78Q95.43-26.9 104.63-26.9L104.63-26.9Q109.51-26.9 111.97-24.62 114.42-22.34 114.42-18.02L114.42-18.02 114.42-6.64Q114.42-4.69 114.93-3.7 115.45-2.71 116.89-2.71ZM102.02-2.86L102.02-2.86Q104.36-2.86 106.17-3.98 107.98-5.1 108.98-6.98 109.98-8.86 109.98-10.86L109.98-10.86 109.98-13.04 105.34-12.94Q102.46-12.89 100.94-12.3 99.43-11.72 98.59-10.51 97.75-9.3 97.75-7.3L97.75-7.3Q97.75-5.3 98.83-4.08 99.92-2.86 102.02-2.86ZM141.18-4.25L141.05-4.25Q139.86-1.68 137.88-0.52 135.9 0.63 132.95 0.63L132.95 0.63Q128.02 0.63 125.7-2.76 123.38-6.15 123.38-12.99L123.38-12.99Q123.38-26.81 132.95-26.81L132.95-26.81Q135.9-26.81 137.89-25.76 139.88-24.71 141.08-22.31L141.08-22.31 141.13-22.31 141.08-26 141.08-36.23 145.47-36.23 145.47-5.44Q145.47-1.32 145.62 0L145.62 0 141.42 0Q141.32-0.37 141.25-1.78 141.18-3.2 141.18-4.25L141.18-4.25ZM127.92-13.13L127.92-13.13Q127.92-7.71 129.37-5.24 130.82-2.76 134.1-2.76L134.1-2.76Q137.66-2.76 139.37-5.33 141.08-7.91 141.08-13.53L141.08-13.53Q141.08-18.77 139.43-21.17 137.78-23.56 134.15-23.56L134.15-23.56Q130.85-23.56 129.38-21.04 127.92-18.53 127.92-13.13ZM177.55-9.03L177.55-9.03Q177.55-4.54 174.27-2.03 170.98 0.49 164.9 0.49L164.9 0.49Q153.75 0.49 151.94-8.25L151.94-8.25 156.46-9.16Q157.14-6.01 159.29-4.58 161.44-3.15 165.03-3.15L165.03-3.15Q168.91-3.15 170.92-4.66 172.94-6.18 172.94-8.96L172.94-8.96Q172.94-10.67 172.14-11.74 171.35-12.82 170.06-13.5 168.76-14.18 167.14-14.61 165.51-15.04 163.85-15.45L163.85-15.45Q159.92-16.48 158.25-17.29 156.58-18.09 155.58-19.13 154.58-20.17 154.06-21.51 153.55-22.85 153.55-24.66L153.55-24.66Q153.55-28.88 156.52-31.16 159.48-33.45 165.03-33.45L165.03-33.45Q170.2-33.45 172.94-31.64 175.67-29.83 176.75-25.54L176.75-25.54 172.16-24.73Q171.57-27.47 169.81-28.7 168.05-29.93 165-29.93L165-29.93Q158.09-29.93 158.09-24.73L158.09-24.73Q158.09-23.27 158.74-22.35 159.39-21.44 160.5-20.84 161.61-20.24 163.09-19.85 164.56-19.46 166.25-19.02L166.25-19.02Q169.64-18.16 171.13-17.59 172.62-17.02 173.78-16.28 174.94-15.55 175.77-14.55 176.6-13.55 177.07-12.21 177.55-10.86 177.55-9.03ZM206.8-13.23L206.8-13.23Q206.8-6.57 203.73-3.04 200.67 0.49 194.88 0.49L194.88 0.49Q189.22 0.49 186.2-3.08 183.19-6.64 183.19-13.23L183.19-13.23Q183.19-20.04 186.28-23.47 189.36-26.9 195.03-26.9L195.03-26.9Q200.99-26.9 203.89-23.51 206.8-20.12 206.8-13.23ZM202.18-13.23L202.18-13.23Q202.18-18.48 200.51-21.07 198.84-23.66 195.1-23.66L195.1-23.66Q191.32-23.66 189.56-21.02 187.8-18.38 187.8-13.23L187.8-13.23Q187.8-8.11 189.56-5.43 191.32-2.76 194.83-2.76L194.83-2.76Q198.72-2.76 200.45-5.37 202.18-7.98 202.18-13.23ZM227.99-36.23L227.99-3.47 237.26-3.47 237.26 0 213.29 0 213.29-3.47 223.59-3.47 223.59-32.76 216.54-32.76 216.54-36.23 227.99-36.23ZM266.9-2.71L266.9-2.71Q267.53-2.71 268.34-2.88L268.34-2.88 268.34-0.15Q266.68 0.24 264.95 0.24L264.95 0.24Q262.5 0.24 261.39-1.04 260.28-2.32 260.14-5.05L260.14-5.05 259.99-5.05Q258.4-2.1 256.24-0.81 254.08 0.49 250.91 0.49L250.91 0.49Q247.05 0.49 245.1-1.61 243.14-3.71 243.14-7.37L243.14-7.37Q243.14-15.89 254.23-16.02L254.23-16.02 259.99-16.11 259.99-17.55Q259.99-20.75 258.7-22.16 257.4-23.56 254.57-23.56L254.57-23.56Q251.69-23.56 250.42-22.53 249.15-21.51 248.91-19.36L248.91-19.36 244.32-19.78Q245.44-26.9 254.64-26.9L254.64-26.9Q259.53-26.9 261.98-24.62 264.43-22.34 264.43-18.02L264.43-18.02 264.43-6.64Q264.43-4.69 264.95-3.7 265.46-2.71 266.9-2.71ZM252.03-2.86L252.03-2.86Q254.37-2.86 256.18-3.98 257.99-5.1 258.99-6.98 259.99-8.86 259.99-10.86L259.99-10.86 259.99-13.04 255.35-12.94Q252.47-12.89 250.96-12.3 249.44-11.72 248.6-10.51 247.76-9.3 247.76-7.3L247.76-7.3Q247.76-5.3 248.84-4.08 249.93-2.86 252.03-2.86ZM295.53-26.49L295.53-22.41Q292.8-22.88 290.36-22.88L290.36-22.88Q286.43-22.88 284.01-19.92 281.59-16.97 281.59-12.4L281.59-12.4 281.59 0 277.2 0 277.2-17.11Q277.2-18.97 276.87-21.48 276.54-24 275.93-26.42L275.93-26.42 280.1-26.42Q281.08-23.05 281.28-20.31L281.28-20.31 281.4-20.31Q282.62-23.05 283.79-24.33 284.96-25.61 286.57-26.26 288.19-26.9 290.5-26.9L290.5-26.9Q293.04-26.9 295.53-26.49L295.53-26.49Z" opacity="1" transform="matrix(1,0,0,1,0,0)" fill="#ffffff" class="wordmark-text-0" data-fill-palette-color="primary" id="text-0"></path></svg></g></svg></g><g transform="matrix(1,0,0,1,106.79039999999998,61.63714595267595)"><svg viewBox="0 0 181.93919999999997 14.692609099675636" height="14.692609099675636" width="181.93919999999997"><g transform="matrix(1,0,0,1,8,0)"><svg width="165.93919999999997" viewBox="0.35 -39.65 570.28 50.5" height="14.692609099675636" data-palette-color="#3d9970"><path d="M11.75-35.25Q14.75-35.25 17.05-34.2 19.35-33.15 21.3-31.05L21.3-31.05 18.35-27.65Q16.8-29.05 15.33-29.75 13.85-30.45 12.2-30.45L12.2-30.45Q10.3-30.45 9.2-29.28 8.1-28.1 8.1-26.2L8.1-26.2Q8.1-24.3 9.25-23.1 10.4-21.9 13.75-20.6L13.75-20.6Q18.05-18.85 20.08-16.5 22.1-14.15 22.1-9.85L22.1-9.85Q22.1-6.9 20.75-4.48 19.4-2.05 16.88-0.65 14.35 0.75 11 0.75L11 0.75Q7.55 0.75 5-0.48 2.45-1.7 0.35-3.95L0.35-3.95 3.55-7.45Q5.35-5.85 7-5 8.65-4.15 10.6-4.15L10.6-4.15Q12.9-4.15 14.18-5.58 15.45-7 15.45-9.45L15.45-9.45Q15.45-11.6 14.33-12.98 13.2-14.35 10.15-15.5L10.15-15.5Q5.55-17.35 3.53-19.75 1.5-22.15 1.5-25.75L1.5-25.75Q1.5-28.5 2.83-30.65 4.15-32.8 6.5-34.02 8.85-35.25 11.75-35.25L11.75-35.25ZM43-6.4Q43-5.1 43.35-4.48 43.7-3.85 44.5-3.45L44.5-3.45 43.25 0.65Q41.2 0.4 39.97-0.45 38.75-1.3 38.15-3.05L38.15-3.05Q35.85 0.75 31.7 0.75L31.7 0.75Q28.4 0.75 26.45-1.48 24.5-3.7 24.5-7.4L24.5-7.4Q24.5-11.7 27.17-13.95 29.85-16.2 34.95-16.2L34.95-16.2 37-16.2 37-18.05Q37-20.55 36.12-21.58 35.25-22.6 33.3-22.6L33.3-22.6Q30.95-22.6 27.45-21.3L27.45-21.3 26.05-25.3Q28.05-26.2 30.2-26.68 32.35-27.15 34.3-27.15L34.3-27.15Q43-27.15 43-18.35L43-18.35 43-6.4ZM33.35-3.7Q35.75-3.7 37-7L37-7 37-12.55 35.55-12.55Q33-12.55 31.82-11.4 30.65-10.25 30.65-7.85L30.65-7.85Q30.65-5.8 31.35-4.75 32.05-3.7 33.35-3.7L33.35-3.7ZM61.2-26.45L67.25-26.45 60.35 0 53.1 0 46-26.45 52.35-26.45 56.7-4.95 61.2-26.45ZM88.99-13.85Q88.99-13.4 88.84-11.3L88.84-11.3 75.19-11.3Q75.39-7.2 76.62-5.58 77.84-3.95 80.09-3.95L80.09-3.95Q81.64-3.95 82.89-4.48 84.14-5 85.59-6.15L85.59-6.15 88.14-2.65Q84.64 0.75 79.74 0.75L79.74 0.75Q74.54 0.75 71.77-2.85 68.99-6.45 68.99-13L68.99-13Q68.99-19.55 71.64-23.35 74.29-27.15 79.14-27.15L79.14-27.15Q83.79-27.15 86.39-23.78 88.99-20.4 88.99-13.85L88.99-13.85ZM82.99-15.3L82.99-15.65Q82.99-19.4 82.09-21.13 81.19-22.85 79.19-22.85L79.19-22.85Q77.34-22.85 76.37-21.18 75.39-19.5 75.19-15.3L75.19-15.3 82.99-15.3ZM121.99-13.85Q121.99-13.4 121.84-11.3L121.84-11.3 108.19-11.3Q108.39-7.2 109.61-5.58 110.84-3.95 113.09-3.95L113.09-3.95Q114.64-3.95 115.89-4.48 117.14-5 118.59-6.15L118.59-6.15 121.14-2.65Q117.64 0.75 112.74 0.75L112.74 0.75Q107.54 0.75 104.76-2.85 101.99-6.45 101.99-13L101.99-13Q101.99-19.55 104.64-23.35 107.29-27.15 112.14-27.15L112.14-27.15Q116.79-27.15 119.39-23.78 121.99-20.4 121.99-13.85L121.99-13.85ZM115.99-15.3L115.99-15.65Q115.99-19.4 115.09-21.13 114.19-22.85 112.19-22.85L112.19-22.85Q110.34-22.85 109.36-21.18 108.39-19.5 108.19-15.3L108.19-15.3 115.99-15.3ZM138.64-27.15Q141.49-27.15 143.14-25.1 144.79-23.05 144.79-19.6L144.79-19.6 144.79 0 138.64 0 138.64-18.9Q138.64-20.8 138.11-21.63 137.59-22.45 136.59-22.45L136.59-22.45Q134.49-22.45 132.44-18.5L132.44-18.5 132.44 0 126.29 0 126.29-26.45 131.64-26.45 132.09-23Q133.44-25.1 134.96-26.13 136.49-27.15 138.64-27.15L138.64-27.15ZM169.18-13.85Q169.18-13.4 169.03-11.3L169.03-11.3 155.38-11.3Q155.58-7.2 156.81-5.58 158.03-3.95 160.28-3.95L160.28-3.95Q161.83-3.95 163.08-4.48 164.33-5 165.78-6.15L165.78-6.15 168.33-2.65Q164.83 0.75 159.93 0.75L159.93 0.75Q154.73 0.75 151.96-2.85 149.18-6.45 149.18-13L149.18-13Q149.18-19.55 151.83-23.35 154.48-27.15 159.33-27.15L159.33-27.15Q163.98-27.15 166.58-23.78 169.18-20.4 169.18-13.85L169.18-13.85ZM163.18-15.3L163.18-15.65Q163.18-19.4 162.28-21.13 161.38-22.85 159.38-22.85L159.38-22.85Q157.53-22.85 156.56-21.18 155.58-19.5 155.38-15.3L155.38-15.3 163.18-15.3ZM191.43-29.85L192.98-25.1Q191.93-24.6 190.46-24.4 188.98-24.2 186.78-24.2L186.78-24.2Q188.88-23.2 189.91-21.53 190.93-19.85 190.93-17.4L190.93-17.4Q190.93-13.4 188.48-10.95 186.03-8.5 181.83-8.5L181.83-8.5Q180.58-8.5 179.28-8.9L179.28-8.9Q178.38-8.15 178.38-6.85L178.38-6.85Q178.38-5.85 178.93-5.35 179.48-4.85 180.98-4.85L180.98-4.85 183.78-4.85Q187.78-4.85 190.13-2.78 192.48-0.7 192.48 2.5L192.48 2.5Q192.48 6.3 189.56 8.58 186.63 10.85 181.23 10.85L181.23 10.85Q175.53 10.85 173.26 8.75 170.98 6.65 170.98 2.6L170.98 2.6 176.43 2.6Q176.43 4.75 177.43 5.65 178.43 6.55 181.28 6.55L181.28 6.55Q184.03 6.55 185.18 5.6 186.33 4.65 186.33 2.9L186.33 2.9Q186.33 1.2 185.38 0.4 184.43-0.4 182.43-0.4L182.43-0.4 180.53-0.4Q176.73-0.4 174.98-1.75 173.23-3.1 173.23-5.45L173.23-5.45Q173.23-6.8 173.96-8.03 174.68-9.25 175.93-10.2L175.93-10.2Q173.88-11.5 172.93-13.3 171.98-15.1 171.98-17.7L171.98-17.7Q171.98-22.05 174.58-24.58 177.18-27.1 181.58-27.1L181.58-27.1Q184.83-27.1 186.96-27.8 189.08-28.5 191.43-29.85L191.43-29.85ZM181.58-23Q179.83-23 178.93-21.75 178.03-20.5 178.03-17.8L178.03-17.8Q178.03-15.25 178.93-13.88 179.83-12.5 181.53-12.5L181.53-12.5Q183.28-12.5 184.13-13.73 184.98-14.95 184.98-17.85L184.98-17.85Q184.98-20.55 184.16-21.78 183.33-23 181.58-23L181.58-23ZM207.38-27.1Q208.53-27.1 209.43-26.75L209.43-26.75 208.43-20.85Q207.43-21.1 206.58-21.1L206.58-21.1Q204.68-21.1 203.58-19.45 202.48-17.8 201.88-14.55L201.88-14.55 201.88 0 195.73 0 195.73-26.45 201.08-26.45 201.53-21.85Q203.38-27.1 207.38-27.1L207.38-27.1ZM230.93-26.45L223.93 0.1Q222.63 4.9 219.73 7.65 216.83 10.4 211.98 10.85L211.98 10.85 211.28 6.5Q214.43 5.85 216 4.42 217.58 3 218.48 0L218.48 0 216.18 0 209.48-26.45 215.73-26.45 220.13-4.1 224.83-26.45 230.93-26.45ZM265.72-26.45L271.42-26.45 266.87 0 259.37 0 256.42-20.85 253.52 0 246.07 0 241.42-26.45 247.37-26.45 250.07-4.6 253.42-26.45 259.67-26.45 262.87-4.6 265.72-26.45ZM274.92-26.45L281.07-26.45 281.07 0 274.92 0 274.92-26.45ZM277.97-39.65Q279.62-39.65 280.64-38.6 281.67-37.55 281.67-35.9L281.67-35.9Q281.67-34.3 280.64-33.25 279.62-32.2 277.97-32.2L277.97-32.2Q276.32-32.2 275.29-33.25 274.27-34.3 274.27-35.9L274.27-35.9Q274.27-37.55 275.29-38.6 276.32-39.65 277.97-39.65L277.97-39.65ZM297.92-5L300.07-1.2Q297.62 0.75 294.32 0.75L294.32 0.75Q290.87 0.75 289.07-1.23 287.27-3.2 287.27-6.6L287.27-6.6 287.27-22 284.17-22 284.17-26.45 287.27-26.45 287.27-32.3 293.42-33.05 293.42-26.45 298.42-26.45 297.82-22 293.42-22 293.42-6.6Q293.42-4.2 295.47-4.2L295.47-4.2Q296.12-4.2 296.62-4.38 297.12-4.55 297.92-5L297.92-5ZM314.96-27.15Q317.81-27.15 319.46-25.1 321.11-23.05 321.11-19.6L321.11-19.6 321.11 0 314.96 0 314.96-18.9Q314.96-20.8 314.44-21.63 313.91-22.45 312.91-22.45L312.91-22.45Q310.81-22.45 308.76-18.5L308.76-18.5 308.76 0 302.61 0 302.61-37 308.76-37.65 308.76-23.3Q310.01-25.25 311.49-26.2 312.96-27.15 314.96-27.15L314.96-27.15ZM360.16-27.15Q362.81-27.15 364.41-25.1 366.01-23.05 366.01-19.6L366.01-19.6 366.01 0 359.96 0 359.96-18.95Q359.96-20.85 359.46-21.68 358.96-22.5 358.01-22.5L358.01-22.5Q356.06-22.5 354.26-18.8L354.26-18.8 354.26 0 348.26 0 348.26-18.95Q348.26-22.5 346.36-22.5L346.36-22.5Q344.31-22.5 342.56-18.8L342.56-18.8 342.56 0 336.51 0 336.51-26.45 341.86-26.45 342.26-23.05Q344.86-27.15 348.51-27.15L348.51-27.15Q350.36-27.15 351.71-26 353.06-24.85 353.76-22.75L353.76-22.75Q356.41-27.15 360.16-27.15L360.16-27.15ZM380.91-27.15Q385.91-27.15 388.68-23.65 391.46-20.15 391.46-13.25L391.46-13.25Q391.46-6.65 388.66-2.95 385.86 0.75 380.91 0.75L380.91 0.75Q375.96 0.75 373.16-2.88 370.36-6.5 370.36-13.25L370.36-13.25Q370.36-19.95 373.16-23.55 375.96-27.15 380.91-27.15L380.91-27.15ZM380.91-22.5Q378.76-22.5 377.76-20.38 376.76-18.25 376.76-13.25L376.76-13.25Q376.76-8.2 377.76-6.08 378.76-3.95 380.91-3.95L380.91-3.95Q383.06-3.95 384.06-6.08 385.06-8.2 385.06-13.25L385.06-13.25Q385.06-18.3 384.06-20.4 383.06-22.5 380.91-22.5L380.91-22.5ZM408.35-27.15Q411.2-27.15 412.85-25.1 414.5-23.05 414.5-19.6L414.5-19.6 414.5 0 408.35 0 408.35-18.9Q408.35-20.8 407.83-21.63 407.3-22.45 406.3-22.45L406.3-22.45Q404.2-22.45 402.15-18.5L402.15-18.5 402.15 0 396 0 396-26.45 401.35-26.45 401.8-23Q403.15-25.1 404.68-26.13 406.2-27.15 408.35-27.15L408.35-27.15ZM436.95-6.4Q436.95-5.1 437.3-4.48 437.65-3.85 438.45-3.45L438.45-3.45 437.2 0.65Q435.15 0.4 433.93-0.45 432.7-1.3 432.1-3.05L432.1-3.05Q429.8 0.75 425.65 0.75L425.65 0.75Q422.35 0.75 420.4-1.48 418.45-3.7 418.45-7.4L418.45-7.4Q418.45-11.7 421.13-13.95 423.8-16.2 428.9-16.2L428.9-16.2 430.95-16.2 430.95-18.05Q430.95-20.55 430.08-21.58 429.2-22.6 427.25-22.6L427.25-22.6Q424.9-22.6 421.4-21.3L421.4-21.3 420-25.3Q422-26.2 424.15-26.68 426.3-27.15 428.25-27.15L428.25-27.15Q436.95-27.15 436.95-18.35L436.95-18.35 436.95-6.4ZM427.3-3.7Q429.7-3.7 430.95-7L430.95-7 430.95-12.55 429.5-12.55Q426.95-12.55 425.78-11.4 424.6-10.25 424.6-7.85L424.6-7.85Q424.6-5.8 425.3-4.75 426-3.7 427.3-3.7L427.3-3.7ZM455.7-37.7L461.85-37.05 461.85 0 456.4 0 456.1-3.05Q453.75 0.75 450.05 0.75L450.05 0.75Q445.95 0.75 443.77-2.93 441.6-6.6 441.6-13.2L441.6-13.2Q441.6-17.4 442.72-20.58 443.85-23.75 445.85-25.45 447.85-27.15 450.45-27.15L450.45-27.15Q453.65-27.15 455.7-24.5L455.7-24.5 455.7-37.7ZM451.8-3.9Q452.95-3.9 453.87-4.7 454.8-5.5 455.7-7L455.7-7 455.7-19.85Q454.1-22.55 452.05-22.55L452.05-22.55Q448-22.55 448-13.25L448-13.25Q448-8.2 449-6.05 450-3.9 451.8-3.9L451.8-3.9ZM484.74-27.15Q489.44-27.15 492.69-24.05L492.69-24.05 490.34-20.7Q488.94-21.7 487.69-22.2 486.44-22.7 485.14-22.7L485.14-22.7Q483.69-22.7 482.87-21.93 482.04-21.15 482.04-19.8L482.04-19.8Q482.04-18.45 482.97-17.63 483.89-16.8 486.69-15.7L486.69-15.7Q490.14-14.35 491.79-12.5 493.44-10.65 493.44-7.55L493.44-7.55Q493.44-3.7 490.74-1.48 488.04 0.75 483.89 0.75L483.89 0.75Q481.19 0.75 478.92-0.23 476.64-1.2 474.94-2.95L474.94-2.95 477.94-6.25Q480.74-3.8 483.64-3.8L483.64-3.8Q485.29-3.8 486.24-4.67 487.19-5.55 487.19-7.1L487.19-7.1Q487.19-8.25 486.79-8.97 486.39-9.7 485.39-10.33 484.39-10.95 482.39-11.7L482.39-11.7Q478.94-13.05 477.47-14.85 475.99-16.65 475.99-19.45L475.99-19.45Q475.99-22.8 478.37-24.98 480.74-27.15 484.74-27.15L484.74-27.15ZM506.69-27.15Q511.69-27.15 514.47-23.65 517.24-20.15 517.24-13.25L517.24-13.25Q517.24-6.65 514.44-2.95 511.64 0.75 506.69 0.75L506.69 0.75Q501.74 0.75 498.94-2.88 496.14-6.5 496.14-13.25L496.14-13.25Q496.14-19.95 498.94-23.55 501.74-27.15 506.69-27.15L506.69-27.15ZM506.69-22.5Q504.54-22.5 503.54-20.38 502.54-18.25 502.54-13.25L502.54-13.25Q502.54-8.2 503.54-6.08 504.54-3.95 506.69-3.95L506.69-3.95Q508.84-3.95 509.84-6.08 510.84-8.2 510.84-13.25L510.84-13.25Q510.84-18.3 509.84-20.4 508.84-22.5 506.69-22.5L506.69-22.5ZM527.39 0.75Q524.69 0.75 523.11-0.93 521.54-2.6 521.54-5.4L521.54-5.4 521.54-37.05 527.69-37.7 527.69-5.65Q527.69-5 527.99-4.6 528.29-4.2 528.89-4.2L528.89-4.2Q529.24-4.2 529.56-4.3 529.89-4.4 529.99-4.4L529.99-4.4 531.19-0.2Q529.49 0.75 527.39 0.75L527.39 0.75ZM551.14-6.4Q551.14-5.1 551.49-4.48 551.84-3.85 552.64-3.45L552.64-3.45 551.39 0.65Q549.34 0.4 548.11-0.45 546.89-1.3 546.29-3.05L546.29-3.05Q543.99 0.75 539.84 0.75L539.84 0.75Q536.54 0.75 534.59-1.48 532.64-3.7 532.64-7.4L532.64-7.4Q532.64-11.7 535.31-13.95 537.99-16.2 543.09-16.2L543.09-16.2 545.14-16.2 545.14-18.05Q545.14-20.55 544.26-21.58 543.39-22.6 541.44-22.6L541.44-22.6Q539.09-22.6 535.59-21.3L535.59-21.3 534.19-25.3Q536.19-26.2 538.34-26.68 540.49-27.15 542.44-27.15L542.44-27.15Q551.14-27.15 551.14-18.35L551.14-18.35 551.14-6.4ZM541.49-3.7Q543.89-3.7 545.14-7L545.14-7 545.14-12.55 543.69-12.55Q541.14-12.55 539.96-11.4 538.79-10.25 538.79-7.85L538.79-7.85Q538.79-5.8 539.49-4.75 540.19-3.7 541.49-3.7L541.49-3.7ZM568.58-27.1Q569.73-27.1 570.63-26.75L570.63-26.75 569.63-20.85Q568.63-21.1 567.78-21.1L567.78-21.1Q565.88-21.1 564.78-19.45 563.68-17.8 563.08-14.55L563.08-14.55 563.08 0 556.93 0 556.93-26.45 562.28-26.45 562.73-21.85Q564.58-27.1 568.58-27.1L568.58-27.1Z" opacity="1" transform="matrix(1,0,0,1,0,0)" fill="#ffffff" class="slogan-text-1" data-fill-palette-color="secondary" id="text-1"></path></svg></g></svg></g></svg></g></svg></g><g><svg viewBox="0 0 119.58395510335268 119.58395510335268" height="119.58395510335268" width="119.58395510335268"><g><svg></svg></g><g id="icon-0"><svg viewBox="0 0 119.58395510335268 119.58395510335268" height="119.58395510335268" width="119.58395510335268"><g><path d="M0 59.792c0-33.022 26.77-59.792 59.792-59.792 33.022 0 59.792 26.77 59.792 59.792 0 33.022-26.77 59.792-59.792 59.792-33.022 0-59.792-26.77-59.792-59.792zM59.792 115.087c30.539 0 55.295-24.756 55.295-55.295 0-30.539-24.756-55.295-55.295-55.295-30.539 0-55.295 24.756-55.295 55.295 0 30.539 24.756 55.295 55.295 55.295z" data-fill-palette-color="tertiary" fill="#ffffff" stroke="transparent"></path></g><g transform="matrix(1,0,0,1,26.309718099150345,26.309718099150345)"><svg viewBox="0 0 66.96451890505199 66.96451890505199" height="66.96451890505199" width="66.96451890505199"><g><svg xmlns="http://www.w3.org/2000/svg" xmlns:xlink="http://www.w3.org/1999/xlink" version="1.1" x="0" y="0" viewBox="5 5 90 90" enable-background="new 0 0 100 100" xml:space="preserve" height="66.96451890505199" width="66.96451890505199" class="icon-cg-0" data-fill-palette-color="accent" id="cg-0"><path d="M92.5 90h-10v-7.6l6.6 2.5c0.3 0.1 0.6 0.2 0.9 0.2 0.5 0 1-0.2 1.4-0.4 0.7-0.5 1.1-1.2 1.1-2.1V70c0-1-0.6-2-1.6-2.3l-20-7.5c-0.8-0.3-1.6-0.2-2.3 0.3-0.7 0.5-1.1 1.2-1.1 2.1V75c0 1 0.6 2 1.6 2.3l8.4 3.1V90h-25v-7.6l6.6 2.5c0.3 0.1 0.6 0.2 0.9 0.2 0.5 0 1-0.2 1.4-0.4 0.7-0.5 1.1-1.2 1.1-2.1V70c0-1-0.6-2-1.6-2.3l-20-7.5c-0.8-0.3-1.6-0.2-2.3 0.3-0.7 0.5-1.1 1.2-1.1 2.1V75c0 1 0.6 2 1.6 2.3l8.4 3.1V90h-25v-7.6l6.6 2.5c0.3 0.1 0.6 0.2 0.9 0.2 0.5 0 1-0.2 1.4-0.4 0.7-0.5 1.1-1.2 1.1-2.1V70c0-1-0.6-2-1.6-2.3l-20-7.5c-0.8-0.3-1.6-0.2-2.3 0.3-0.7 0.5-1.1 1.2-1.1 2.1V75c0 1 0.6 2 1.6 2.3l8.4 3.1V90h-10C6.1 90 5 91.1 5 92.5S6.1 95 7.5 95h85c1.4 0 2.5-1.1 2.5-2.5S93.9 90 92.5 90zM72.5 66.1l15 5.6v7.2l-15-5.6V66.1zM42.5 66.1l15 5.6v7.2l-15-5.6V66.1zM12.5 66.1l15 5.6v7.2l-15-5.6V66.1z" fill="#ffffff" data-fill-palette-color="accent"></path><path d="M80 30c0-5.5-4.5-10-10-10s-10 4.5-10 10 4.5 10 10 10S80 35.5 80 30zM70 35c-2.8 0-5-2.2-5-5s2.2-5 5-5 5 2.2 5 5S72.8 35 70 35z" fill="#ffffff" data-fill-palette-color="accent"></path><path d="M70 17.5c1.4 0 2.5-1.1 2.5-2.5V7.5C72.5 6.1 71.4 5 70 5s-2.5 1.1-2.5 2.5V15C67.5 16.4 68.6 17.5 70 17.5z" fill="#ffffff" data-fill-palette-color="accent"></path><path d="M67.5 45v7.5c0 1.4 1.1 2.5 2.5 2.5s2.5-1.1 2.5-2.5V45c0-1.4-1.1-2.5-2.5-2.5S67.5 43.6 67.5 45z" fill="#ffffff" data-fill-palette-color="accent"></path><path d="M60.3 18.3c0.5 0.8 1.3 1.3 2.2 1.3 0.4 0 0.9-0.1 1.2-0.3 1.2-0.7 1.6-2.2 0.9-3.4l-3.8-6.5c-0.7-1.2-2.2-1.6-3.4-0.9-1.2 0.7-1.6 2.2-0.9 3.4L60.3 18.3z" fill="#ffffff" data-fill-palette-color="accent"></path><path d="M79.1 50.7c0.5 0.8 1.3 1.3 2.2 1.3 0.4 0 0.9-0.1 1.2-0.3 1.2-0.7 1.6-2.2 0.9-3.4l-3.8-6.5c-0.7-1.2-2.2-1.6-3.4-0.9-1.2 0.7-1.6 2.2-0.9 3.4L79.1 50.7z" fill="#ffffff" data-fill-palette-color="accent"></path><path d="M49.3 20.9l6.5 3.8c0.4 0.2 0.8 0.3 1.2 0.3 0.9 0 1.7-0.4 2.2-1.3 0.7-1.2 0.3-2.7-0.9-3.4l-6.5-3.8c-1.2-0.7-2.7-0.3-3.4 0.9C47.7 18.7 48.1 20.2 49.3 20.9z" fill="#ffffff" data-fill-palette-color="accent"></path><path d="M89.5 43.8c0.9 0 1.7-0.4 2.2-1.3 0.7-1.2 0.3-2.7-0.9-3.4l-6.5-3.8c-1.2-0.7-2.7-0.3-3.4 0.9-0.7 1.2-0.3 2.7 0.9 3.4l6.5 3.8C88.6 43.6 89.1 43.8 89.5 43.8z" fill="#ffffff" data-fill-palette-color="accent"></path><path d="M47.5 32.5H55c1.4 0 2.5-1.1 2.5-2.5s-1.1-2.5-2.5-2.5h-7.5c-1.4 0-2.5 1.1-2.5 2.5S46.1 32.5 47.5 32.5z" fill="#ffffff" data-fill-palette-color="accent"></path><path d="M92.5 27.5H85c-1.4 0-2.5 1.1-2.5 2.5s1.1 2.5 2.5 2.5h7.5c1.4 0 2.5-1.1 2.5-2.5S93.9 27.5 92.5 27.5z" fill="#ffffff" data-fill-palette-color="accent"></path><path d="M59.2 36.3c-0.7-1.2-2.2-1.6-3.4-0.9l-6.5 3.8c-1.2 0.7-1.6 2.2-0.9 3.4 0.5 0.8 1.3 1.3 2.2 1.3 0.4 0 0.9-0.1 1.2-0.3l6.5-3.8C59.5 39 59.9 37.4 59.2 36.3z" fill="#ffffff" data-fill-palette-color="accent"></path><path d="M80.8 23.8c0.5 0.8 1.3 1.3 2.2 1.3 0.4 0 0.9-0.1 1.2-0.3l6.5-3.8c1.2-0.7 1.6-2.2 0.9-3.4-0.7-1.2-2.2-1.6-3.4-0.9l-6.5 3.8C80.5 21 80.1 22.6 80.8 23.8z" fill="#ffffff" data-fill-palette-color="accent"></path><path d="M57.5 51.7c0.4 0.2 0.8 0.3 1.2 0.3 0.9 0 1.7-0.4 2.2-1.3l3.8-6.5c0.7-1.2 0.3-2.7-0.9-3.4-1.2-0.7-2.7-0.3-3.4 0.9l-3.8 6.5C55.9 49.4 56.3 51 57.5 51.7z" fill="#ffffff" data-fill-palette-color="accent"></path><path d="M76.3 19.2c0.4 0.2 0.8 0.3 1.2 0.3 0.9 0 1.7-0.4 2.2-1.3l3.8-6.5c0.7-1.2 0.3-2.7-0.9-3.4-1.2-0.7-2.7-0.3-3.4 0.9l-3.8 6.5C74.6 17 75.1 18.5 76.3 19.2z" fill="#ffffff" data-fill-palette-color="accent"></path></svg></g></svg></g></svg></g></svg></g></svg></g><defs></defs></svg><rect width="395.52" height="87.80846666410999" fill="none" stroke="none" visibility="hidden"></rect></g></svg></g></svg>